<svg width="124" height="124" viewBox="0 0 124 124" fill="none" xmlns="http://www.w3.org/2000/svg">
    <path d="M49.1764 113.667C46.6447 105.413 42.8266 99.2569 37.7193 95.2036C30.0597 89.125 17.8896 92.9044 13.3946 86.6321C8.89964 80.3598 16.5437 68.8278 19.2252 62.0233C21.9093 55.2188 8.94355 52.8137 10.4574 50.8814C11.4649 49.5923 18.0188 45.8775 30.114 39.7317C33.5498 20.1345 46.2417 10.3334 68.1949 10.3334C101.122 10.3334 113.667 38.2489 113.667 56.0067C113.667 73.7594 98.4767 92.8864 76.8387 97.012C74.9038 99.8278 77.6938 105.382 85.2087 113.667" stroke="black" stroke-width="9.72292" stroke-linecap="round" stroke-linejoin="round"/>
    <path d="M50.375 37.4583C48.6855 44.0045 49.1867 48.6028 51.8811 51.2508C54.573 53.8961 59.161 55.6295 65.6451 56.4433C64.1726 64.8882 65.968 68.8484 71.0262 68.3266C76.0844 67.8073 79.125 65.7045 80.1454 62.0233C88.0504 64.2449 92.3361 62.3849 93 56.4433C93.9946 47.5308 89.1896 40.424 87.2185 40.424C85.25 40.424 80.1454 40.1838 80.1454 37.4583C80.1454 34.7329 74.183 33.1958 68.802 33.1958C63.4209 33.1958 66.6578 29.5663 59.2695 31C54.343 31.9558 51.3774 34.1078 50.375 37.4583Z" stroke="black" stroke-width="8.33333" stroke-linejoin="round"/>
    <path d="M78.7919 65.875C76.1646 67.5051 72.5609 70.215 71.0419 72.3333C67.247 77.6292 64.1702 80.8532 63.4985 84.2373" stroke="black" stroke-width="8.33333" stroke-linecap="round"/>
    </svg>
    