<svg width="100" height="100" viewBox="0 0 100 100" fill="none" xmlns="http://www.w3.org/2000/svg">
    <path d="M38.2861 98.9305H38.2916C38.8225 98.8369 39.3297 98.6397 39.7842 98.35C40.2388 98.0603 40.6319 97.6839 40.9409 97.2423C41.25 96.8006 41.4689 96.3024 41.5854 95.7761C41.7018 95.2498 41.7133 94.7057 41.6194 94.175L39.9805 84.8861C39.9805 84.8861 38.0916 76.0944 42.9694 69.75C39.4722 66.4972 29.0138 69.9861 29.0138 69.9861L33.5305 95.6C33.7195 96.6722 34.3267 97.6255 35.2186 98.2501C36.1104 98.8747 37.2138 99.1194 38.2861 98.9305ZM73.5416 98.8722H73.5472C74.078 98.7786 74.5852 98.5813 75.0398 98.2917C75.4944 98.002 75.8874 97.6256 76.1965 97.1839C76.5055 96.7423 76.7245 96.2441 76.8409 95.7178C76.9573 95.1915 76.9689 94.6474 76.8749 94.1166L73.2305 74.6027C73.2305 74.6027 71.8333 67.8833 71.8333 62.2722C68.6611 61.0527 64.2694 69.9305 64.2694 69.9305L68.7861 95.5444C68.9771 96.6155 69.5849 97.5671 70.4763 98.1909C71.3676 98.8146 72.4699 99.0596 73.5416 98.8722ZM14.4388 71.5861C15.1569 71.5862 15.8462 71.304 16.358 70.8005C16.8699 70.2969 17.1633 69.6123 17.175 68.8944C17.2083 66.8861 18.0194 56.8777 30.8555 56.8777C31.5812 56.8777 32.2771 56.5895 32.7902 56.0763C33.3034 55.5632 33.5916 54.8673 33.5916 54.1416C33.5916 53.416 33.3034 52.72 32.7902 52.2069C32.2771 51.6938 31.5812 51.4055 30.8555 51.4055C15.9583 51.4055 11.8055 62.3444 11.7 68.8055C11.6937 69.1651 11.7584 69.5223 11.8903 69.8569C12.0222 70.1914 12.2188 70.4967 12.4688 70.7552C12.7188 71.0137 13.0173 71.2203 13.3472 71.3634C13.6772 71.5065 14.0321 71.5831 14.3916 71.5888L14.4388 71.5861Z" fill="#F4900C"/>
    <path d="M57.7055 47.9222L67.3166 14.6444L62.6305 11.8111C61.6055 13.5055 60.8861 16.5944 59.7027 21.9027C58.1222 29.0083 55.9555 38.7361 52.3222 43.7805C51.898 44.3699 51.7252 45.1037 51.8419 45.8204C51.9586 46.5372 52.3552 47.1783 52.9444 47.6027C53.4305 47.9527 57.7055 47.9222 57.7055 47.9222ZM78.8472 7.52773V2.05273C78.8198 1.52677 78.5916 1.03138 78.2096 0.668771C77.8276 0.306163 77.3211 0.104004 76.7944 0.104004C76.2677 0.104004 75.7611 0.306163 75.3792 0.668771C74.9972 1.03138 74.769 1.52677 74.7416 2.05273V7.52773H78.8472ZM72.3694 7.52773V2.05273C72.342 1.52677 72.1138 1.03138 71.7318 0.668771C71.3499 0.306163 70.8433 0.104004 70.3166 0.104004C69.7899 0.104004 69.2834 0.306163 68.9014 0.668771C68.5194 1.03138 68.2912 1.52677 68.2638 2.05273V7.52773H72.3694Z" fill="#754C29"/>
    <path d="M14.4388 79.7973C11.4151 79.7973 8.96382 76.7329 8.96382 72.9528C8.96382 69.1728 11.4151 66.1084 14.4388 66.1084C17.4626 66.1084 19.9138 69.1728 19.9138 72.9528C19.9138 76.7329 17.4626 79.7973 14.4388 79.7973Z" fill="#754C29"/>
    <path d="M19.6251 94.7057C19.6251 94.7057 21.4223 87.7196 22.3973 83.1668C23.3196 78.864 25.2446 72.1084 25.6501 60.3195C25.6779 59.9168 25.7584 58.8973 26.0334 58.1557C26.3723 57.239 27.6085 55.564 28.1612 54.814C30.3196 51.8918 33.7501 50.1168 37.9557 49.6834C41.5196 49.3168 45.1029 49.1695 48.6612 48.7418C50.3001 48.5445 51.7168 48.3084 52.6112 47.9862C57.1557 46.3501 58.0612 41.0362 59.3168 36.9723C61.539 29.7779 63.5057 22.4584 64.764 15.0279L64.839 14.5696V13.4446C60.4862 11.4612 57.089 5.42233 59.364 3.15011C63.2973 1.18344 67.2168 3.45566 69.1223 5.90566C69.1779 5.90288 69.2307 5.889 69.2862 5.889H76.5029C78.3223 5.889 80.1251 6.33344 81.7029 7.30566C83.3251 8.30289 84.4418 9.82511 86.239 10.6112C88.4223 11.5668 91.0196 10.8696 92.9529 12.389C96.2557 14.9807 94.689 19.4029 90.5807 19.5501C90.0223 21.1529 88.5112 22.3084 86.7196 22.3084H80.8696C80.7168 22.339 80.5696 22.3668 80.389 22.389C78.7112 22.5862 77.3668 23.8473 76.2862 25.764C73.3779 30.9195 72.8307 37.5529 72.3557 43.3307C72.0177 47.3585 71.8713 51.4001 71.9168 55.4418C72.7307 59.7918 72.2501 64.8223 72.2501 64.8223C72.1279 65.9862 71.7334 66.9807 71.1557 67.864L71.1834 67.8945C65.6557 75.7001 64.3807 84.4779 64.3807 84.4779L62.2029 96.1251C62.0139 97.1978 61.4066 98.1514 60.5145 98.7763C59.6224 99.4011 58.5186 99.646 57.4459 99.457C56.3733 99.2681 55.4196 98.6607 54.7948 97.7686C54.1699 96.8765 53.925 95.7728 54.114 94.7001L57.6196 74.814C52.1279 76.2973 44.8168 77.4029 39.7057 77.1807C39.7057 77.1973 39.714 77.2195 39.7112 77.2362C33.1251 76.8307 30.6557 82.0418 30.1168 84.3918C29.5779 86.7418 27.7057 96.1362 27.7057 96.1362C27.6284 96.6819 27.4421 97.2064 27.1578 97.6785C26.8735 98.1506 26.4971 98.5606 26.051 98.8842C25.6049 99.2077 25.0982 99.4381 24.5611 99.5617C24.0241 99.6852 23.4676 99.6994 22.925 99.6033C22.3823 99.5072 21.8646 99.3029 21.4026 99.0025C20.9406 98.702 20.5438 98.3117 20.2358 97.8547C19.9279 97.3976 19.7151 96.8833 19.6102 96.3423C19.5053 95.8013 19.5104 95.2447 19.6251 94.7057Z" fill="#FFCC4D"/>
    <path d="M66.736 61.3889C69.4722 64.125 69.9583 68.0778 67.8222 70.2166C65.6833 72.3555 61.7305 71.8694 58.9944 69.1305C56.2583 66.3916 55.7722 62.4416 57.9083 60.3027C60.0472 58.1639 63.9999 58.65 66.736 61.3889ZM63.7138 44.2083C63.712 45.971 63.1431 47.6862 62.0911 49.1005C61.0391 50.5149 59.5599 51.5531 57.8723 52.0618C56.1846 52.5704 54.3781 52.5225 52.7197 51.9251C51.0614 51.3277 49.6394 50.2125 48.6638 48.7444C50.3027 48.5472 51.7194 48.3111 52.6138 47.9889C56.9583 46.425 57.8138 41.775 58.8722 38.4305C59.0305 37.9333 59.1722 37.4611 59.3222 36.9778C60.6432 37.6688 61.7505 38.7075 62.5244 39.9818C63.2984 41.256 63.7096 42.7174 63.7138 44.2083ZM66.4527 31.8916C66.4527 30.0764 67.1738 28.3355 68.4574 27.0519C69.741 25.7683 71.4819 25.0472 73.2972 25.0472C74.3749 25.0472 75.3805 25.3194 76.2888 25.7611C74.5249 28.8889 73.4694 33.775 72.8388 38.6861C71.1109 38.5754 69.4897 37.8118 68.3038 36.5502C67.118 35.2885 66.4562 33.6231 66.4527 31.8916ZM69.4888 20.5611C69.4888 23.6666 66.9722 26.1805 63.8694 26.1805C63.3638 26.1805 62.8833 26.0916 62.4166 25.9666C63.3408 22.3528 64.1257 18.7047 64.7694 15.0305C66.0845 15.2422 67.2814 15.9148 68.146 16.928C69.0106 17.9413 69.4866 19.2291 69.4888 20.5611ZM44.5527 55.1611C44.5527 57.3388 43.6876 59.4273 42.1477 60.9672C40.6078 62.5071 38.5193 63.3722 36.3416 63.3722C34.1639 63.3722 32.0754 62.5071 30.5355 60.9672C28.9956 59.4273 28.1305 57.3388 28.1305 55.1611C28.1305 55.0416 28.161 54.9333 28.1666 54.8166C30.3249 51.8944 33.7555 50.1194 37.961 49.6861C39.3474 49.5497 40.7355 49.4311 42.1249 49.3305C42.8947 50.0938 43.5056 51.0021 43.9223 52.0029C44.339 53.0036 44.5532 54.077 44.5527 55.1611ZM67.7833 7.25831C66.3805 5.91664 64.1249 4.23331 62.8444 4.88053C61.5638 5.52775 62.1277 8.41664 66.0833 10.8555C65.7694 9.63609 64.5527 7.48053 67.7833 7.25831Z" fill="#F4900C"/>
    <path d="M75.6333 14.0972C74.1222 14.0972 72.8972 12.8722 72.8972 11.3611C72.8972 9.85 74.1222 8.625 75.6333 8.625C77.1444 8.625 78.3694 9.85 78.3694 11.3611C78.3694 12.8722 77.1444 14.0972 75.6333 14.0972Z" fill="#292F33"/>
    <path d="M41.536 93.1805C41.536 93.1805 44.7082 96.9333 44.2721 98.1277C43.836 99.3222 36.6582 99.4916 35.2471 98.1888C33.836 96.886 40.6666 93.0722 41.536 93.1805ZM76.5999 93.1805C76.5999 93.1805 79.7721 96.9333 79.336 98.1277C78.9027 99.3222 71.7221 99.4916 70.311 98.1888C68.8999 96.886 75.7305 93.0722 76.5999 93.1805ZM63.9694 99.3472C63.5916 100.433 56.286 100.261 55.0666 98.0666C53.8471 95.8722 62.5055 94.4083 62.5055 94.4083C62.5055 94.4083 64.4582 97.9444 63.9694 99.3472ZM29.5138 99.3472C29.136 100.433 21.8305 100.261 20.611 98.0666C19.3916 95.8722 28.0499 94.4083 28.0499 94.4083C28.0499 94.4083 30.0027 97.9444 29.5138 99.3472Z" fill="#754C29"/>
    </svg>
    