<svg width="100" height="100" viewBox="0 0 100 100" fill="none" xmlns="http://www.w3.org/2000/svg">
    <path d="M48.578 17.875C52.9139 17.8125 57.2108 18.6719 61.1483 20.2188C67.9452 22.8906 83.3358 24.3047 86.3905 29.8438C90.0077 36.4063 84.2967 52.586 84.617 55.2422C84.9217 57.8125 84.992 61.0781 84.6717 63.586C84.1092 67.961 82.3827 72.2109 79.3983 76.0391C76.3827 79.8984 71.6795 83.211 65.1483 85.1328C51.3749 89.1719 33.0545 86.5938 25.867 80.6406C23.1717 78.4141 21.1717 76.0625 19.742 73.5469C17.3514 69.3594 16.5233 64.7266 16.6639 59.4688C16.8905 51.0547 7.75767 38.5547 14.0467 31.4844C20.3358 24.4141 36.078 20.6719 36.078 20.6719C36.078 20.6719 41.0545 17.9922 48.578 17.875Z" fill="#B0B0B0"/>
    <path d="M72.625 27.1562C72.8125 27.9453 74.7969 30.5234 77.2656 35.3125C79.6328 39.8984 81.5312 44.6641 81.9062 44.7422C82.7969 44.9219 92.0078 42.0469 92.0781 41.75C92.1562 41.4531 88.9375 26.0391 88.9375 26.0391L74.3516 22L72.625 27.1562ZM22.0156 35.8359C24.4844 30.0312 26.4688 28.3906 26.6953 27.4219C26.9219 26.4531 18.0938 24.6875 18.0938 24.6875L8.4375 30.4453L10.8281 41.9688C10.8281 41.9688 17.4844 47.4688 17.9375 47.3906C18.3906 47.3203 19.5469 41.6328 22.0156 35.8359Z" fill="#FEBDBE"/>
    <path d="M36.4921 20.6485C36.789 17.8751 25.7187 15.0391 22.3515 16.9845C19.8906 18.4063 22.4999 19.6798 21.4531 20.5782C20.7578 21.172 14.4218 18.1876 9.71088 21.7735C6.12495 24.5001 8.14057 24.7657 7.91401 25.6641C7.68745 26.5626 5.44526 27.9845 4.02338 30.1563C2.60151 32.3282 1.85151 35.4298 2.30463 35.9141C2.85932 36.5157 4.48432 35.3126 4.69526 36.5157C4.92182 37.7891 2.17182 41.9688 3.42182 45.7891C4.61713 49.4532 5.66401 46.6876 6.49213 47.8126C7.31245 48.9376 6.57026 50.5782 8.51557 54.0938C9.81245 56.4376 11.3281 57.172 11.8828 57.3126C12.7812 57.5391 12.6328 56.4141 13.7499 56.3438C14.8749 56.2657 16.664 59.4845 16.664 59.4845C16.664 59.4845 16.5859 56.7891 17.0781 52.6016C17.5703 48.3829 18.4609 47.0626 18.3906 46.3907C18.3124 45.7188 11.0624 41.3048 13.6015 33.7501C16.1406 26.1954 23.1015 27.5391 23.9999 27.7657C24.8984 27.9923 26.3203 28.5157 28.414 27.9923C30.5078 27.4532 36.1953 23.4141 36.4921 20.6485Z" fill="url(#paint0_linear_1_326)"/>
    <path d="M60.8047 20.2733C60.6875 21.2186 63.586 23.453 65.5157 24.6874C68.211 26.4061 71.125 27.453 72.25 27.453C73.375 27.453 81.5235 22.8124 85.7188 29.8436C89.9063 36.8749 82.125 43.6874 81.9063 44.7343C81.8672 46.1952 82.4766 47.0233 83.2891 50.1952C84.0391 53.1093 84.375 54.1952 84.5625 55.3593C84.8438 55.8436 88.0547 53.289 89.836 50.5702C91.1094 48.6249 91.1797 46.6015 91.9297 46.3827C92.6797 46.1561 93.125 48.4765 94.1016 48.328C95.0703 48.1796 96.8282 43.0936 96.461 39.578C95.9375 34.6405 92.9844 32.9921 93.8828 31.4218C94.7813 29.8515 96.7969 31.7186 97.4766 30.453C98.1485 29.1796 96.5078 25.5936 94.0313 23.8671C91.5547 22.1405 89.0938 22.3671 88.7188 21.4765C88.3438 20.578 89.9922 20.1327 89.9922 19.1561C89.9922 18.1874 87.2969 16.6874 82.586 16.4608C78.5391 16.2655 74.8828 18.4061 74.6563 17.2108C74.4297 16.0155 75.4766 16.0858 75.4063 15.5624C75.3281 15.039 72.5313 13.8046 68.375 14.9608C65.1485 15.8593 60.9532 19.0936 60.8047 20.2733Z" fill="url(#paint1_linear_1_326)"/>
    <path d="M66.2657 46.25C63.4532 46.3907 62.9532 49.5625 63.1251 51.6953C63.3048 54 63.9141 56.7422 66.8282 56.6875C69.8048 56.6328 70.5313 53.4922 70.586 51.0782C70.6485 48.6641 69.6954 46.086 66.2657 46.25ZM34.172 46.086C31.3595 46.2266 30.6173 48.4922 30.6954 50.6328C30.8048 53.9453 32.7188 56.4688 34.7345 56.5235C37.711 56.6094 38.3282 53.8282 38.3829 51.4141C38.4376 49 37.5938 45.9141 34.172 46.086Z" fill="#2F2F2F"/>
    <path d="M66.9453 49.7891C66.4609 50.9219 65.3359 51.7735 64.6484 51.4844C63.9609 51.1954 63.8046 50.0391 64.289 48.9063C64.7734 47.7735 65.7187 47.0938 66.3984 47.3907C67.0859 47.6798 67.4296 48.6563 66.9453 49.7891ZM34.9062 50.2891C34.3203 51.3048 32.8828 52.0235 32.2109 51.6329C31.539 51.2501 31.6718 49.9141 32.2578 48.8985C32.8437 47.8829 33.8593 47.3673 34.5312 47.7579C35.1953 48.1407 35.4921 49.2735 34.9062 50.2891Z" fill="#DFDFDF"/>
    <path d="M52.914 73.8047L47.078 73.6953L42.2499 72.0703C42.2499 72.0703 42.1562 75.1172 42.3046 76.9531C42.4765 78.9766 44.4374 83.2422 50.8358 83.125C57.0624 83.0156 59.1405 79.2109 59.1952 76.8984C59.2499 74.6016 59.1405 72.8047 59.1405 72.8047L52.914 73.8047Z" fill="url(#paint2_radial_1_326)"/>
    <path d="M50.7268 72.5703C48.9299 72.6249 46.4611 72.1249 45.508 71.7812C44.5549 71.4453 43.1486 70.4374 42.2502 71.4999C41.3518 72.5624 42.6408 73.9687 44.719 74.6406C46.7971 75.3124 48.3674 75.7031 50.6096 75.6484C53.4143 75.5781 55.9924 75.0859 56.8908 74.8046C57.7893 74.5234 59.8986 73.6093 59.3049 72.164C58.633 70.539 57.4533 71.6015 55.9377 71.9921C54.4299 72.3984 52.633 72.5078 50.7268 72.5703Z" fill="#2F2F2F"/>
    <path d="M50.6719 46.8672C45.0626 46.75 43.3204 51.2969 42.8751 54.2735C42.4297 57.25 41.9844 60.3203 42.7813 63.961C43.5704 67.5547 46.4063 69.6016 50.6172 69.5313C54.3204 69.4766 56.461 68.1719 57.5782 66C58.8125 63.586 58.7579 61.1719 58.5313 55.9531C58.3047 50.7422 55.8907 46.9766 50.6719 46.8672Z" fill="#303030"/>
    <path d="M51.7657 66.9844C51.7657 67.5235 52.5704 67.836 53.4766 67.5704C54.4298 67.2891 55.9141 66.4219 56.3673 65.4063C56.6095 64.8672 56.422 64.0626 55.836 64.3126C55.2501 64.5626 54.7735 65.1251 53.9532 65.6329C53.1407 66.1407 51.7657 66.5626 51.7657 66.9844ZM47.4141 65.5782C46.1641 64.8204 45.7579 64.2032 45.1954 64.3985C44.6329 64.5938 44.9454 65.7188 45.5313 66.2188C46.1173 66.7188 47.1563 67.5079 48.2266 67.7344C49.0626 67.9063 49.6329 67.2579 49.3516 66.8907C49.0704 66.5313 48.3438 66.1407 47.4141 65.5782Z" fill="#AFAFAF"/>
    <defs>
    <linearGradient id="paint0_linear_1_326" x1="9.24917" y1="56.9196" x2="23.8312" y2="14.5696" gradientUnits="userSpaceOnUse">
    <stop offset="0.182" stop-color="#C9C7C8"/>
    <stop offset="0.256" stop-color="#BDBCBD"/>
    <stop offset="0.411" stop-color="#A8A8AA"/>
    <stop offset="0.498" stop-color="#9E9EA1"/>
    <stop offset="0.648" stop-color="#828487"/>
    <stop offset="0.799" stop-color="#606468"/>
    </linearGradient>
    <linearGradient id="paint1_linear_1_326" x1="91.5625" y1="52.4085" x2="73.7656" y2="12.4351" gradientUnits="userSpaceOnUse">
    <stop offset="0.164" stop-color="#C9C7C8"/>
    <stop offset="0.244" stop-color="#BDBCBD"/>
    <stop offset="0.411" stop-color="#A8A8AA"/>
    <stop offset="0.486" stop-color="#96979A"/>
    <stop offset="0.674" stop-color="#6F7276"/>
    <stop offset="0.772" stop-color="#606468"/>
    </linearGradient>
    <radialGradient id="paint2_radial_1_326" cx="0" cy="0" r="1" gradientUnits="userSpaceOnUse" gradientTransform="translate(50.5015 61.6273) scale(18.8992 18.8992)">
    <stop offset="0.784" stop-color="#FEBDBB"/>
    <stop offset="0.821" stop-color="#F5BEBC"/>
    <stop offset="0.88" stop-color="#DCC1C0"/>
    <stop offset="0.922" stop-color="#C7C3C3"/>
    </radialGradient>
    </defs>
    </svg>
    