<svg width="75" height="76" viewBox="0 0 75 76" fill="none" xmlns="http://www.w3.org/2000/svg">
    <path d="M12.5 62.75C10.7812 62.75 9.31042 62.1385 8.0875 60.9156C6.86458 59.6927 6.25208 58.2208 6.25 56.5V19C6.25 17.2812 6.8625 15.8104 8.0875 14.5875C9.3125 13.3646 10.7833 12.7521 12.5 12.75H62.5C64.2188 12.75 65.6906 13.3625 66.9156 14.5875C68.1406 15.8125 68.7521 17.2833 68.75 19V56.5C68.75 58.2187 68.1385 59.6906 66.9156 60.9156C65.6927 62.1406 64.2208 62.7521 62.5 62.75H12.5ZM37.5 40.875L12.5 25.25V56.5H62.5V25.25L37.5 40.875ZM37.5 34.625L62.5 19H12.5L37.5 34.625ZM12.5 25.25V19V56.5V25.25Z" fill="black"/>
    </svg>
    