<svg width="84" height="84" viewBox="0 0 84 84" fill="none" xmlns="http://www.w3.org/2000/svg">
    <path d="M41.9935 11.0448C34.5123 10.8545 28.5076 14.0963 28.5076 14.0963C28.5076 14.0963 20.882 2.69728 10.1195 10.7692C-0.96458 19.0838 9.46979 31.0013 9.46979 31.0013C9.46979 31.0013 1.90979 40.2676 2.54636 52.067C3.22886 64.7195 9.93573 79.6426 42.827 79.0913C75.7182 78.5401 81.4276 64.1682 81.3554 51.6995C81.2832 39.6901 75.6264 32.6682 75.6264 32.6682C75.6264 32.6682 85.8835 21.4923 77.2867 12.7117C68.6898 3.93103 58.8985 15.7632 58.8985 15.7632C58.8985 15.7632 52.802 11.3204 41.9935 11.0448Z" fill="#4D4D4D"/>
    <path d="M41.6521 13.4597C35.4505 13.4597 27.8577 14.7394 17.607 24.7144C7.35642 34.6894 2.45423 46.4297 5.5058 57.8878C8.55736 69.346 17.7908 77.1947 42.7349 76.9191C67.6789 76.6435 75.9674 69.2672 78.6711 56.595C79.6817 51.8569 79.3142 43.6472 75.1602 35.9035C69.7133 25.7382 57.4677 13.4597 41.6521 13.4597Z" fill="white"/>
    <path d="M35.1291 32.7271C30.03 29.6165 24.721 32.9108 20.7178 38.3315C17.2266 43.0565 13.6828 44.6052 13.3875 49.5402C13.1382 53.668 16.2225 59.5808 22.6275 59.5808C28.4813 59.5808 29.7741 54.0355 32.4844 50.2818C35.1882 46.5215 42.7547 37.3799 35.1291 32.7271ZM47.5716 33.8361C44.251 36.8549 44.9203 41.8424 47.3878 44.9858C49.8553 48.1293 51.3844 49.8815 52.441 51.824C53.8257 54.3768 58.7475 63.8399 66.6685 57.6121C74.7338 51.2661 68.6569 43.5224 66.7932 41.5996C66.0647 40.8515 59.4957 33.9608 58.2291 32.9174C56.595 31.559 52.3097 29.5246 47.5716 33.8361Z" fill="#4D4D4D"/>
    <path d="M61.4249 43.995C61.6349 47.2697 60.4996 50.0916 57.6055 50.3409C54.7902 50.5772 52.2505 48.1031 51.7518 44.8613C51.2596 41.6194 52.8018 38.9484 55.8796 38.8238C58.708 38.7122 61.1821 40.1756 61.4249 43.995ZM30.8765 47.9981C29.3277 50.3016 26.0005 50.82 23.5461 48.9825C21.8202 47.6897 21.433 43.9753 22.9949 41.2847C24.6421 38.4431 27.9955 38.0428 30.4958 39.8147C32.4777 41.2256 33.0355 44.7956 30.8765 47.9981Z" fill="#040301"/>
    <path d="M53.3595 41.6588C52.6573 43.3651 53.1102 45.6029 54.4095 45.5372C56.0698 45.4585 55.5186 44.0607 56.0698 43.3847C56.6211 42.7088 57.612 41.2913 56.562 40.4907C55.243 39.4735 53.7927 40.6088 53.3595 41.6588ZM24.4123 41.2847C23.2508 43.1222 23.5002 44.7235 24.163 45.2879C25.1802 46.1476 26.4139 44.9466 27.2145 43.4701C28.0152 41.9935 29.0323 40.7269 27.7986 39.8082C26.9258 39.1585 25.1473 40.1166 24.4123 41.2847Z" fill="#E0E0E0"/>
    <path d="M41.7834 53.4188C38.0887 53.4648 33.7181 55.9454 33.6525 57.1792C33.5934 58.4129 35.5031 59.8304 36.7959 60.8148C37.7606 61.5498 39.8737 62.7245 39.69 63.3413C39.5062 63.9582 38.0822 64.6473 36.5466 64.8179C34.5122 65.0476 31.8412 63.2495 31.185 62.7835C30.3975 62.2323 28.5994 63.0132 29.4328 64.6342C30.2597 66.242 31.8675 67.2985 33.5934 67.7317C35.4572 68.1976 36.4875 68.086 36.4875 68.086C36.4875 68.086 38.2856 70.6454 41.6587 70.921C45.4781 71.2295 47.3222 67.8432 47.3222 67.8432C47.3222 67.8432 49.6387 68.2042 51.1416 67.6595C53.1759 66.9179 53.9569 65.612 54.4687 64.5817C55.0594 63.3807 54.2522 61.681 52.3162 62.9213C50.7741 63.9057 50.0391 65.0148 46.9875 64.877C45.0975 64.7917 44.31 63.5973 44.31 63.1051C44.31 62.6129 46.5872 61.2545 47.9456 60.2701C49.3106 59.2726 50.3475 58.1767 50.4065 57.2513C50.4656 56.3129 46.6462 53.3598 41.7834 53.4188Z" fill="#030200"/>
    <path d="M41.9936 65.2312C41.9936 65.2312 41.1011 66.3534 40.7336 66.6028C40.3661 66.8521 39.1323 67.5412 39.1323 67.5412C39.1323 67.5412 40.0773 68.5978 41.3045 68.7421C43.6604 69.0178 44.6317 67.679 44.6317 67.679C44.6317 67.679 44.0936 67.2459 43.4767 66.7996C42.9123 66.3928 41.9936 65.2312 41.9936 65.2312Z" fill="#FDA4A5"/>
    </svg>
    