<svg width="62" height="61" viewBox="0 0 62 61" fill="none" xmlns="http://www.w3.org/2000/svg">
    <path d="M53.3344 38.0399L42.1241 33.0162C41.6162 32.7986 41.062 32.7111 40.5117 32.7616C39.9614 32.8122 39.4325 32.9992 38.9727 33.3057C38.926 33.3357 38.8816 33.369 38.8398 33.4054L32.9807 38.3888C32.92 38.4219 32.8523 38.4405 32.7831 38.4429C32.7139 38.4454 32.6451 38.4317 32.5821 38.403C28.8161 36.5853 24.9148 32.7077 23.0899 28.9939C23.0595 28.9318 23.0437 28.8636 23.0437 28.7945C23.0437 28.7254 23.0595 28.6573 23.0899 28.5952L28.0899 22.6626C28.1258 22.6187 28.1591 22.5727 28.1896 22.525C28.4919 22.0634 28.6745 21.5338 28.7209 20.9841C28.7673 20.4343 28.676 19.8816 28.4553 19.3759L23.4672 8.18463C23.1839 7.524 22.694 6.97305 22.071 6.61449C21.4481 6.25593 20.7256 6.10909 20.012 6.19602C16.911 6.6037 14.0645 8.12658 12.0045 10.4801C9.94447 12.8336 8.81189 15.8567 8.81839 18.9844C8.81839 37.5653 23.9347 52.6816 42.5157 52.6816C45.6432 52.6876 48.666 51.5549 51.0194 49.4949C53.3728 47.435 54.8958 44.5888 55.304 41.488C55.3907 40.7778 55.2459 40.0586 54.891 39.4373C54.5361 38.816 53.9902 38.326 53.3344 38.0399ZM42.5157 49.834C25.5057 49.834 11.666 35.9944 11.666 18.9844C11.6581 16.5495 12.537 14.1949 14.1384 12.3607C15.7398 10.5265 17.9543 9.33814 20.368 9.01757H20.4226C20.5182 9.01935 20.6111 9.04999 20.689 9.10546C20.7669 9.16094 20.8262 9.23866 20.8592 9.32844L25.8664 20.5079C25.8949 20.57 25.9097 20.6376 25.9097 20.706C25.9097 20.7744 25.8949 20.842 25.8664 20.9042L20.8569 26.851C20.8195 26.8935 20.7854 26.9387 20.7548 26.9863C20.4413 27.4648 20.2568 28.0162 20.2189 28.587C20.1811 29.1578 20.2913 29.7287 20.5389 30.2445C22.6438 34.5539 26.9864 38.8634 31.3433 40.9683C31.8621 41.2145 32.4358 41.322 33.0085 41.2804C33.5812 41.2388 34.1333 41.0495 34.611 40.731C34.6561 40.7001 34.7012 40.6669 34.7439 40.6313L40.6006 35.6479C40.6584 35.6168 40.7223 35.5986 40.7879 35.5945C40.8534 35.5904 40.919 35.6005 40.9803 35.6242L52.1929 40.6479C52.2845 40.6869 52.3615 40.7537 52.4131 40.8389C52.4646 40.9241 52.488 41.0233 52.4801 41.1225C52.1612 43.5374 50.9739 45.7535 49.1401 47.3567C47.3063 48.9599 44.9515 49.8405 42.5157 49.834Z" fill="black"/>
    </svg>
    