<svg width="142" height="142" viewBox="0 0 142 142" fill="none" xmlns="http://www.w3.org/2000/svg">
    <g clip-path="url(#clip0_1_235)">
    <path d="M75.1535 12.9871L116.57 28.5184C118.826 29.3641 120.77 30.8783 122.143 32.8586C123.515 34.8389 124.25 37.1909 124.25 39.6003V71.3314C124.25 81.2207 121.497 90.9146 116.298 99.327C111.099 107.739 103.66 114.538 94.8146 118.961L74.9701 128.883C73.7375 129.499 72.3782 129.82 71 129.82C69.6218 129.82 68.2625 129.499 67.0299 128.883L47.1854 118.961C38.3402 114.538 30.9014 107.739 25.7024 99.327C20.5034 90.9146 17.7498 81.2207 17.75 71.3314V39.6003C17.7497 37.1909 18.4849 34.8389 19.8572 32.8586C21.2296 30.8783 23.1738 29.3641 25.4298 28.5184L66.8465 12.9871C69.5245 11.9833 72.4755 11.9833 75.1535 12.9871ZM71 24.0691L29.5833 39.6003V71.3314C29.5847 79.0223 31.7275 86.5609 35.7717 93.1026C39.8158 99.6443 45.6016 104.931 52.4808 108.37L71 117.641L89.5192 108.382C96.4002 104.942 102.187 99.6534 106.231 93.1094C110.276 86.5654 112.418 79.0243 112.417 71.3314V39.6003L71 24.0691ZM71 47.3334C72.5692 47.3334 74.0741 47.9568 75.1837 49.0663C76.2933 50.1759 76.9167 51.6809 76.9167 53.2501V65.0834H88.75C90.3192 65.0834 91.8241 65.7068 92.9337 66.8163C94.0433 67.9259 94.6667 69.4309 94.6667 71.0001C94.6667 72.5693 94.0433 74.0742 92.9337 75.1838C91.8241 76.2934 90.3192 76.9167 88.75 76.9167H76.9167V88.7501C76.9167 90.3193 76.2933 91.8242 75.1837 92.9338C74.0741 94.0434 72.5692 94.6667 71 94.6667C69.4308 94.6667 67.9259 94.0434 66.8163 92.9338C65.7067 91.8242 65.0833 90.3193 65.0833 88.7501V76.9167H53.25C51.6808 76.9167 50.1759 76.2934 49.0663 75.1838C47.9567 74.0742 47.3333 72.5693 47.3333 71.0001C47.3333 69.4309 47.9567 67.9259 49.0663 66.8163C50.1759 65.7068 51.6808 65.0834 53.25 65.0834H65.0833V53.2501C65.0833 51.6809 65.7067 50.1759 66.8163 49.0663C67.9259 47.9568 69.4308 47.3334 71 47.3334Z" fill="black"/>
    </g>
    <defs>
    <clipPath id="clip0_1_235">
    <rect width="142" height="142" fill="white"/>
    </clipPath>
    </defs>
    </svg>
    