<svg width="129" height="129" viewBox="0 0 129 129" fill="none" xmlns="http://www.w3.org/2000/svg">
    <path d="M64.5 118.25C34.8139 118.25 10.75 94.1861 10.75 64.5C10.75 34.8139 34.8139 10.75 64.5 10.75C94.1861 10.75 118.25 34.8139 118.25 64.5C118.25 94.1861 94.1861 118.25 64.5 118.25ZM64.5 107.5C75.9043 107.5 86.8415 102.97 94.9056 94.9056C102.97 86.8415 107.5 75.9043 107.5 64.5C107.5 53.0957 102.97 42.1585 94.9056 34.0944C86.8415 26.0303 75.9043 21.5 64.5 21.5C53.0957 21.5 42.1585 26.0303 34.0944 34.0944C26.0303 42.1585 21.5 53.0957 21.5 64.5C21.5 75.9043 26.0303 86.8415 34.0944 94.9056C42.1585 102.97 53.0957 107.5 64.5 107.5ZM43 69.875H86C86 75.5771 83.7348 81.0458 79.7028 85.0778C75.6708 89.1098 70.2021 91.375 64.5 91.375C58.7978 91.375 53.3292 89.1098 49.2972 85.0778C45.2652 81.0458 43 75.5771 43 69.875ZM43 59.125C40.8617 59.125 38.811 58.2756 37.2989 56.7635C35.7869 55.2515 34.9375 53.2008 34.9375 51.0625C34.9375 48.9242 35.7869 46.8735 37.2989 45.3614C38.811 43.8494 40.8617 43 43 43C45.1383 43 47.189 43.8494 48.701 45.3614C50.2131 46.8735 51.0625 48.9242 51.0625 51.0625C51.0625 53.2008 50.2131 55.2515 48.701 56.7635C47.189 58.2756 45.1383 59.125 43 59.125ZM86 59.125C83.8617 59.125 81.811 58.2756 80.2989 56.7635C78.7869 55.2515 77.9375 53.2008 77.9375 51.0625C77.9375 48.9242 78.7869 46.8735 80.2989 45.3614C81.811 43.8494 83.8617 43 86 43C88.1383 43 90.189 43.8494 91.701 45.3614C93.2131 46.8735 94.0625 48.9242 94.0625 51.0625C94.0625 53.2008 93.2131 55.2515 91.701 56.7635C90.189 58.2756 88.1383 59.125 86 59.125Z" fill="black"/>
    </svg>
    