<svg width="47" height="52" viewBox="0 0 47 52" fill="none" xmlns="http://www.w3.org/2000/svg">
    <path d="M36.7966 8.24C34.8021 6.02893 33.7029 3.18939 33.7038 0.25H24.688V35.3833C24.6184 37.2846 23.7919 39.0854 22.3823 40.4067C20.9727 41.7279 19.0902 42.4664 17.1311 42.4667C12.9879 42.4667 9.54496 39.18 9.54496 35.1C9.54496 30.2267 14.3884 26.5717 19.3777 28.0733V19.12C9.31154 17.8167 0.5 25.41 0.5 35.1C0.5 44.535 8.55294 51.25 17.1019 51.25C26.2636 51.25 33.7038 44.025 33.7038 35.1V17.2783C37.3597 19.8279 41.749 21.1958 46.25 21.1883V12.4333C46.25 12.4333 40.7647 12.6883 36.7966 8.24Z" fill="black"/>
    </svg>
    