<svg width="66" height="52" viewBox="0 0 66 52" fill="none" xmlns="http://www.w3.org/2000/svg">
    <path d="M65.5002 6.25C63.0986 7.3 60.5098 7.99 57.8274 8.32C60.5722 6.73 62.6931 4.21 63.6912 1.18C61.1024 2.68 58.2329 3.73 55.2075 4.33C52.7434 1.75 49.2813 0.25 45.3513 0.25C38.0216 0.25 32.0331 6.01 32.0331 13.12C32.0331 14.14 32.1579 15.13 32.3762 16.06C21.2725 15.52 11.3852 10.39 4.80402 2.62C3.64998 4.51 2.99499 6.73 2.99499 9.07C2.99499 13.54 5.33426 17.5 8.95232 19.75C6.73782 19.75 4.67926 19.15 2.87023 18.25V18.34C2.87023 24.58 7.48638 29.8 13.5997 30.97C11.637 31.4866 9.57643 31.5585 7.57995 31.18C8.4271 33.7374 10.0862 35.9752 12.324 37.5788C14.5619 39.1824 17.2659 40.0711 20.0561 40.12C15.3265 43.7213 9.46383 45.6679 3.43165 45.64C2.37118 45.64 1.31071 45.58 0.250244 45.46C6.17639 49.12 13.2254 51.25 20.7734 51.25C45.3513 51.25 58.8567 31.63 58.8567 14.62C58.8567 14.05 58.8567 13.51 58.8255 12.94C61.4455 11.14 63.6912 8.86 65.5002 6.25Z" fill="black"/>
    </svg>
    