<svg width="65" height="45" viewBox="0 0 65 45" fill="none" xmlns="http://www.w3.org/2000/svg">
    <path d="M26.05 32.3571L42.7877 22.875L26.05 13.3929V32.3571ZM63.331 7.60875C63.7502 9.09429 64.0405 11.0855 64.234 13.6141C64.4597 16.1427 64.5565 18.3236 64.5565 20.22L64.75 22.875C64.75 29.797 64.234 34.8857 63.331 38.1413C62.5247 40.9859 60.6542 42.8191 57.7517 43.6093C56.236 44.0202 53.4625 44.3046 49.2055 44.4943C45.013 44.7155 41.1753 44.8104 37.6278 44.8104L32.5 45C18.9872 45 10.57 44.4943 7.24825 43.6093C4.34575 42.8191 2.47525 40.9859 1.669 38.1413C1.24975 36.6557 0.9595 34.6645 0.766 32.1359C0.54025 29.6073 0.4435 27.4264 0.4435 25.53L0.25 22.875C0.25 15.953 0.766 10.8643 1.669 7.60875C2.47525 4.76411 4.34575 2.93089 7.24825 2.14071C8.764 1.72982 11.5375 1.44536 15.7945 1.25571C19.987 1.03446 23.8247 0.939643 27.3722 0.939643L32.5 0.75C46.0127 0.75 54.43 1.25571 57.7517 2.14071C60.6542 2.93089 62.5247 4.76411 63.331 7.60875Z" fill="black"/>
    </svg>
    